<svg width="45" height="45" viewBox="0 0 45 45" fill="none" xmlns="http://www.w3.org/2000/svg">
<path d="M41.667 0C43.5077 0.000174828 44.9998 1.49232 45 3.33301V41.667C44.9998 43.5077 43.5077 44.9998 41.667 45H3.33301C1.49232 44.9998 0.000175915 43.5077 0 41.667V3.33301C0.000174828 1.49232 1.49232 0.000175915 3.33301 0H41.667ZM7.5 4.16699C5.65905 4.16699 4.16699 5.65905 4.16699 7.5V37.5C4.16699 39.3409 5.65905 40.833 7.5 40.833H37.5C39.3409 40.833 40.833 39.3409 40.833 37.5V7.5C40.833 5.65905 39.3409 4.16699 37.5 4.16699H7.5Z" fill="#003366"/>
<path d="M12.0359 37.3333V8.24243H23.1723C25.2746 8.24243 27.0217 8.57387 28.4138 9.23675C29.8153 9.89016 30.8617 10.785 31.553 11.9214C32.2537 13.0578 32.6041 14.3457 32.6041 15.785C32.6041 16.9688 32.3769 17.982 31.9223 18.8248C31.4678 19.6582 30.857 20.3352 30.0899 20.8561C29.3229 21.3769 28.4659 21.751 27.5189 21.9782V22.2623C28.5511 22.3191 29.5407 22.6364 30.4876 23.214C31.4441 23.7822 32.2253 24.5871 32.8314 25.6288C33.4375 26.6705 33.7405 27.9299 33.7405 29.4072C33.7405 30.9129 33.3759 32.2671 32.6467 33.4697C31.9176 34.6629 30.8191 35.6051 29.3513 36.2964C27.8835 36.9877 26.0369 37.3333 23.8115 37.3333H12.0359ZM17.3058 32.9299H22.9734C24.8863 32.9299 26.2642 32.5654 27.107 31.8362C27.9592 31.0975 28.3854 30.1506 28.3854 28.9953C28.3854 28.1335 28.1723 27.357 27.7462 26.6657C27.32 25.965 26.714 25.4157 25.928 25.018C25.142 24.6108 24.2045 24.4072 23.1155 24.4072H17.3058V32.9299ZM17.3058 20.6146H22.5189C23.428 20.6146 24.2471 20.4489 24.9763 20.1174C25.7055 19.7765 26.2784 19.2983 26.695 18.6828C27.1212 18.0578 27.3342 17.3191 27.3342 16.4669C27.3342 15.34 26.9365 14.4119 26.1411 13.6828C25.3551 12.9536 24.1856 12.589 22.6325 12.589H17.3058V20.6146Z" fill="#DD8627"/>
</svg>
