<svg width="54" height="54" viewBox="0 0 54 54" fill="none" xmlns="http://www.w3.org/2000/svg">
<path d="M50 0C52.2091 4.50979e-07 54 1.79086 54 4V50C54 52.2091 52.2091 54 50 54H4C1.79086 54 1.61067e-08 52.2091 0 50V4C4.50986e-07 1.79086 1.79086 1.61064e-08 4 0H50ZM9 5C6.79086 5 5 6.79086 5 9V45C5 47.2091 6.79086 49 9 49H45C47.2091 49 49 47.2091 49 45V9C49 6.79086 47.2091 5 45 5H9Z" fill="#003366"/>
<path d="M14.4432 44V9.09091H27.8068C30.3295 9.09091 32.4261 9.48864 34.0966 10.2841C35.7784 11.0682 37.0341 12.142 37.8636 13.5057C38.7045 14.8693 39.125 16.4148 39.125 18.142C39.125 19.5625 38.8523 20.7784 38.3068 21.7898C37.7614 22.7898 37.0284 23.6023 36.108 24.2273C35.1875 24.8523 34.1591 25.3011 33.0227 25.5739V25.9148C34.2614 25.983 35.4489 26.3636 36.5852 27.0568C37.733 27.7386 38.6705 28.7045 39.3977 29.9545C40.125 31.2045 40.4886 32.7159 40.4886 34.4886C40.4886 36.2955 40.0511 37.9205 39.1761 39.3636C38.3011 40.7955 36.983 41.9261 35.2216 42.7557C33.4602 43.5852 31.2443 44 28.5739 44H14.4432ZM20.767 38.7159H27.5682C29.8636 38.7159 31.517 38.2784 32.5284 37.4034C33.5511 36.517 34.0625 35.3807 34.0625 33.9943C34.0625 32.9602 33.8068 32.0284 33.2955 31.1989C32.7841 30.358 32.0568 29.6989 31.1136 29.2216C30.1705 28.733 29.0455 28.4886 27.7386 28.4886H20.767V38.7159ZM20.767 23.9375H27.0227C28.1136 23.9375 29.0966 23.7386 29.9716 23.3409C30.8466 22.9318 31.5341 22.358 32.0341 21.6193C32.5455 20.8693 32.8011 19.983 32.8011 18.9602C32.8011 17.608 32.3239 16.4943 31.3693 15.6193C30.4261 14.7443 29.0227 14.3068 27.1591 14.3068H20.767V23.9375Z" fill="#DD8627"/>
</svg>
