<svg id="Layer_1" data-name="Layer 1" xmlns="http://www.w3.org/2000/svg" viewBox="0 0 586.26 612"><defs><style>.cls-1{fill:#f4f6f8;}.cls-2{fill:#4373b8;}.cls-3{fill:#5a95cf;}.cls-4{fill:none;}</style></defs><ellipse class="cls-1" cx="206.98" cy="233.8" rx="36.86" ry="36.54"/><path class="cls-2" d="M239.86,216.75c-.87-1.39-1.68-2.8-2.63-4.14-5.9-8.31-14.17-13-23.95-15a37.08,37.08,0,0,0-21.36,2.24A34.46,34.46,0,0,0,173.85,216c-7.14,13.33-6.6,26.67,2,39.21,6,8.67,14.49,13.68,25,15.13a2.22,2.22,0,0,1,2,.34c.61,0,1.21,0,1.82.07.9-1.44,2.63-1.68,3.93-2.11.36-.12.69-.26,1-.41a1.31,1.31,0,0,0,.27-.12,4.83,4.83,0,0,0,.56-.27s0,0,.08,0,0,0,0,0h0a0,0,0,0,1,0,0c.37-.19.74-.39,1.11-.61s.75-.42,1.1-.64a25.42,25.42,0,0,0,2.51-2.58c.07-.09.16-.17.22-.25l.31-.36c.49-.61,1-1.23,1.4-1.89l.2-.34s0,0,0-.05a22.11,22.11,0,0,0,3.09-7.71,13.15,13.15,0,0,0,.22-1.4c.2-2.49.07-2.66-2.28-1.82a42.49,42.49,0,0,1-18.15,2.23,27.65,27.65,0,0,1-13.82-5.33,29.55,29.55,0,0,1-12.33-20.86,8.46,8.46,0,0,1,.49-6.57v4.28a21.18,21.18,0,0,0,4.08,8.64c1.59,2.16,3.83,3.39,5.74,5.06,1.36,1.21,1.75-.91,1.89-1.59a40.6,40.6,0,0,1,7.39-16.48c7.89-10.49,18.5-13.29,30.9-10.81a40.06,40.06,0,0,1,6.13,2l.37.13.37.14a1.92,1.92,0,0,1,.51.27,10,10,0,0,1,4.13,3.36s0,0,0,0c.83.83,1.61,1.75,2.45,2.56S240,218,239.86,216.75Zm-30.09,38.61a3.43,3.43,0,0,1,3.39,3.06,3.32,3.32,0,0,1-3.33,3.31,3.13,3.13,0,0,1-3.24-3.08A3.06,3.06,0,0,1,209.77,255.36ZM186.1,223.51a3.05,3.05,0,0,1-3.23,2.82,3.17,3.17,0,0,1-3.17-3.12,3.12,3.12,0,0,1,3-3.09C184.8,220.21,186.35,221.69,186.1,223.51Zm46.63-11.12.62.22c-.2-.11-.34.2-.56.08A1.59,1.59,0,0,0,232.73,212.39Z"/><path class="cls-3" d="M239.86,216.75c.09,1.28-.2,1.4-1.16.5s-1.62-1.73-2.45-2.56c0,0,0,0,0,0a.47.47,0,0,0-.1-.09,8.07,8.07,0,0,0-2.77-2l-.62-.22c-3.21-.52-6.31-1.7-9.67-1.43a24.29,24.29,0,0,0-8.62,2.26c-1.22.59-1.33,1.23-.27,2.08A42.41,42.41,0,0,1,224,226.72c6.71,11.08,5.51,26.57-4.78,35.85a8.37,8.37,0,0,1-.62.57l-.07.07c-.44.35-.88.71-1.33,1.05a4.82,4.82,0,0,0-.44.35l-.07.07c-.89.79-1.74,1.77-3,1.9a12.06,12.06,0,0,1-3.2,1.3l0,0s0,0-.08,0a4.83,4.83,0,0,1-.56.27,1.31,1.31,0,0,1-.27.12c-.34.15-.67.29-1,.41-1.3.43-3,.67-3.93,2.11,13.8,1,28.07-6.64,35-19C246.09,240.27,245.75,228.46,239.86,216.75Zm-12.77,4.1a3.29,3.29,0,0,1-3.42-3.33,3.69,3.69,0,0,1,3.3-3.12c1.81,0,3,1.5,3,3.53S228.66,220.66,227.09,220.85Z"/><path class="cls-1" d="M182.71,220.13c2.09.08,3.63,1.55,3.39,3.38a3.06,3.06,0,0,1-3.22,2.82,3.16,3.16,0,0,1-3.17-3.13A3.1,3.1,0,0,1,182.71,220.13Z"/><path class="cls-1" d="M209.77,255.37a3.4,3.4,0,0,1,3.38,3,3.31,3.31,0,0,1-3.32,3.31,3.11,3.11,0,0,1-3.23-3.06A3,3,0,0,1,209.77,255.37Z"/><path class="cls-1" d="M227.09,220.84a3.29,3.29,0,0,1-3.43-3.31,3.68,3.68,0,0,1,3.31-3.12c1.82,0,3,1.49,3,3.52A2.8,2.8,0,0,1,227.09,220.84Z"/><path class="cls-3" d="M216.7,264.68c-.89.79-1.74,1.77-3,1.9A23.33,23.33,0,0,0,216.7,264.68Z"/><path class="cls-4" d="M215.33,264a25.42,25.42,0,0,1-2.51,2.58c-.35.22-.73.44-1.1.64s-.74.42-1.11.61A19.77,19.77,0,0,0,215.33,264Z"/><path class="cls-4" d="M217.49,261.08s0,0,0,.05a.1.1,0,0,0,0-.05Z"/><path class="cls-4" d="M217.21,264.26c.45-.34.89-.7,1.33-1.05-.63.54-1.22,1-1.77,1.4A4.82,4.82,0,0,1,217.21,264.26Z"/><path class="cls-4" d="M219.25,262.59c-.22.2-.44.38-.64.55a8.37,8.37,0,0,0,.62-.57Z"/><path class="cls-3" d="M236.12,214.57a24.78,24.78,0,0,0-2.77-2A8.07,8.07,0,0,1,236.12,214.57Z"/></svg>