<svg width="115" height="47" viewBox="0 0 115 47" fill="none" xmlns="http://www.w3.org/2000/svg">
<g clip-path="url(#clip0_246_220)">
<path d="M3.05005 2V45.2H189.74V2H3.05005ZM4.36005 3.32001H95.7301C97.8432 3.40204 99.8759 4.15184 101.536 5.46169C103.196 6.77153 104.399 8.57398 104.97 10.61V34.25C104.972 36.3495 105.615 38.3983 106.815 40.1214C108.014 41.8445 109.712 43.1596 111.68 43.89H4.36005V3.32001Z" fill="#003366"/>
<path d="M28.82 34.18H16.28V12.73H28.43C29.2709 12.6761 30.1141 12.7918 30.9095 13.0701C31.7048 13.3484 32.4361 13.7836 33.06 14.35C33.5837 14.8443 33.9997 15.4413 34.2819 16.1038C34.5641 16.7663 34.7064 17.4799 34.7 18.2C34.7484 19.3628 34.3953 20.5068 33.7 21.44C33.0502 22.2893 32.123 22.8838 31.08 23.12C32.2432 23.2958 33.2895 23.925 33.99 24.87C34.7686 25.8648 35.1816 27.0969 35.16 28.36C35.1796 29.125 35.0445 29.886 34.7626 30.5974C34.4808 31.3088 34.0582 31.956 33.52 32.5C32.8951 33.0894 32.1548 33.543 31.3459 33.8321C30.537 34.1213 29.677 34.2397 28.82 34.18ZM27.18 21C27.4301 21.011 27.6798 20.9725 27.9149 20.8867C28.15 20.8009 28.3659 20.6695 28.55 20.5C28.7259 20.3336 28.8641 20.1315 28.9555 19.9073C29.0469 19.6831 29.0894 19.4419 29.08 19.2C29.0863 18.9629 29.0424 18.7271 28.951 18.5082C28.8597 18.2893 28.723 18.0923 28.55 17.93C28.1758 17.5915 27.6843 17.4121 27.18 17.43H21.81V21H27.18ZM27.37 29.55C27.6522 29.5691 27.9353 29.5321 28.2031 29.4411C28.4708 29.3502 28.7179 29.207 28.93 29.02C29.1198 28.8411 29.2689 28.6235 29.3672 28.382C29.4656 28.1404 29.5109 27.8806 29.5 27.62C29.5061 27.363 29.4586 27.1076 29.3604 26.87C29.2623 26.6323 29.1157 26.4178 28.93 26.24C28.7187 26.0512 28.472 25.9062 28.2042 25.8135C27.9364 25.7208 27.6529 25.6822 27.37 25.7H21.81V29.55H27.37Z" fill="#DD8627"/>
<path d="M53.4499 34.18H48.4999V32.31C47.8263 33.0581 46.9955 33.6478 46.0671 34.0368C45.1386 34.4259 44.1356 34.6045 43.1299 34.56C42.4335 34.6158 41.7331 34.5293 41.0712 34.3058C40.4094 34.0823 39.7999 33.7265 39.2799 33.26C38.8443 32.7814 38.5077 32.2214 38.2898 31.612C38.0718 31.0027 37.9767 30.3563 38.0099 29.71V18.65H43.0099V27.65C42.9635 27.9958 42.9986 28.3477 43.1124 28.6776C43.2261 29.0075 43.4153 29.3062 43.6649 29.55C43.9146 29.7938 44.2177 29.9759 44.5502 30.0818C44.8826 30.1877 45.2352 30.2145 45.5799 30.16C46.1646 30.1686 46.7427 30.0357 47.265 29.7728C47.7873 29.5099 48.2384 29.1247 48.5799 28.65V18.65H53.5299L53.4499 34.18Z" fill="#DD8627"/>
<path d="M63 34.56C61.6179 34.5643 60.244 34.3483 58.93 33.92C57.7534 33.57 56.6633 32.9773 55.73 32.18L57.79 28.77C58.5377 29.396 59.391 29.8836 60.31 30.21C61.2447 30.5919 62.2407 30.8019 63.25 30.83C64.65 30.83 65.34 30.44 65.34 29.64C65.34 29.28 65.03 29 64.41 28.82C63.6705 28.6142 62.9191 28.4539 62.16 28.34C61.2624 28.1954 60.3766 27.9849 59.51 27.71C58.622 27.4393 57.8328 26.9143 57.24 26.2C56.5955 25.4015 56.2647 24.3951 56.31 23.37C56.3072 22.6697 56.4654 21.9783 56.7722 21.3489C57.0791 20.7195 57.5266 20.169 58.08 19.74C59.4779 18.6801 61.2088 18.1551 62.96 18.26C65.2925 18.2253 67.5733 18.9481 69.46 20.32L67.56 23.6C66.9771 23.0721 66.2981 22.6613 65.56 22.39C64.7424 22.0632 63.8705 21.8935 62.99 21.89C62.4955 21.8697 62.0048 21.9838 61.57 22.22C61.4147 22.2902 61.282 22.4022 61.1866 22.5435C61.0913 22.6847 61.0371 22.8497 61.03 23.02C61.03 23.34 61.34 23.58 61.96 23.74C62.58 23.9 63.33 24.06 64.21 24.23C65.1089 24.3953 65.9946 24.6259 66.86 24.92C67.7536 25.221 68.5417 25.773 69.13 26.51C69.8737 27.521 70.1861 28.7857 69.9986 30.0267C69.8112 31.2678 69.1392 32.3838 68.13 33.13C66.6197 34.1491 64.8197 34.6509 63 34.56Z" fill="#DD8627"/>
<path d="M77.0899 16.43C76.558 16.9576 75.8391 17.2537 75.0899 17.2537C74.3407 17.2537 73.6219 16.9576 73.0899 16.43C72.8266 16.1683 72.6184 15.8565 72.4776 15.513C72.3368 15.1695 72.2661 14.8012 72.2699 14.43C72.2699 13.6794 72.5681 12.9596 73.0988 12.4289C73.6295 11.8982 74.3494 11.6 75.0999 11.6C75.8505 11.6 76.5703 11.8982 77.101 12.4289C77.6318 12.9596 77.9299 13.6794 77.9299 14.43C77.9311 14.8026 77.8574 15.1717 77.7131 15.5153C77.5688 15.8589 77.3568 16.1699 77.0899 16.43ZM77.5599 34.18H72.6099V18.65H77.5599V34.18Z" fill="#DD8627"/>
<path d="M95.2801 34.18H90.3301V32.63C89.7695 33.255 89.0663 33.7353 88.2801 34.03C87.3965 34.3849 86.4523 34.5648 85.5001 34.56C84.1554 34.5622 82.8527 34.0914 81.8201 33.23C81.2674 32.7734 80.8294 32.1936 80.5412 31.5372C80.2529 30.8808 80.1224 30.1659 80.1601 29.45C80.1041 28.7368 80.2213 28.0207 80.5016 27.3626C80.7819 26.7044 81.2171 26.1238 81.7701 25.67C82.8466 24.8687 84.1583 24.4467 85.5001 24.47C87.7534 24.47 89.3634 25.07 90.3301 26.27V24.4C90.337 24.0784 90.2639 23.7602 90.1172 23.4739C89.9706 23.1876 89.7551 22.9423 89.4901 22.76C88.7995 22.3192 87.9882 22.1059 87.1701 22.15C85.5523 22.1407 83.9871 22.7241 82.7701 23.79L81.0001 20.67C82.9616 19.0402 85.451 18.1831 88.0001 18.26C88.9161 18.2497 89.8299 18.3538 90.7201 18.57C91.5308 18.7733 92.3015 19.1113 93.0001 19.57C93.7192 20.0443 94.2881 20.7138 94.6401 21.5C95.0641 22.4419 95.2692 23.4675 95.2401 24.5L95.2801 34.18ZM87.5601 31.31C88.0786 31.369 88.6036 31.2975 89.0874 31.1019C89.5712 30.9063 89.9983 30.5928 90.3301 30.19V28.81C89.9912 28.417 89.5623 28.1118 89.08 27.9202C88.5977 27.7287 88.0763 27.6566 87.5601 27.71C86.9366 27.6879 86.3205 27.8515 85.7901 28.18C85.5715 28.3274 85.3924 28.5262 85.2686 28.759C85.1448 28.9917 85.08 29.2514 85.08 29.515C85.08 29.7787 85.1448 30.0383 85.2686 30.2711C85.3924 30.5038 85.5715 30.7026 85.7901 30.85C86.3216 31.175 86.9376 31.3351 87.5601 31.31Z" fill="#DD8627"/>
</g>
<defs>
<clipPath id="clip0_246_220">
<rect width="115" height="47" fill="white"/>
</clipPath>
</defs>
</svg>
