<svg width="79" height="47" viewBox="0 0 79 47" fill="none" xmlns="http://www.w3.org/2000/svg">
<g clip-path="url(#clip0_246_220)">
<path d="M-107.95 2V45.2H78.74V2H-107.95ZM-106.64 3.32001H-15.2699C-13.1568 3.40204 -11.1241 4.15184 -9.46391 5.46169C-7.8037 6.77153 -6.60145 8.57398 -6.02995 10.61V34.25C-6.02849 36.3495 -5.38488 38.3983 -4.18547 40.1214C-2.98607 41.8445 -1.28828 43.1596 0.680038 43.89H-106.64V3.32001Z" fill="#003366"/>
<path d="M15.7601 34.56C12.6931 34.6601 9.71048 33.5461 7.46005 31.46C5.3423 29.3362 4.15308 26.4593 4.15308 23.46C4.15308 20.4607 5.3423 17.5838 7.46005 15.46C9.71786 13.3815 12.703 12.2751 15.7701 12.38C17.7257 12.2889 19.6634 12.7887 21.3311 13.8143C22.9987 14.8398 24.319 16.3436 25.1201 18.13L20.36 20.38C19.9821 19.4817 19.3538 18.7111 18.55 18.16C17.7416 17.5741 16.7685 17.2591 15.7701 17.26C14.9674 17.2369 14.1691 17.3845 13.4278 17.6931C12.6865 18.0017 12.0192 18.4642 11.4701 19.05C10.3869 20.2675 9.78857 21.8404 9.78857 23.47C9.78857 25.0996 10.3869 26.6725 11.4701 27.89C12.0201 28.474 12.6878 28.9347 13.429 29.2415C14.1703 29.5483 14.9682 29.6944 15.7701 29.67C16.7692 29.6758 17.7438 29.3603 18.55 28.77C19.3555 28.225 19.9845 27.457 20.36 26.56L25.1201 28.81C24.3003 30.4444 23.0916 31.8523 21.6001 32.91C19.8791 34.0685 17.8329 34.6467 15.7601 34.56Z" fill="white"/>
<path d="M43.21 34.18H27.49V12.73H43.21V17.55H33V20.9H43V25.72H33V29.35H43.19L43.21 34.18Z" fill="white"/>
<path d="M66.36 34.18H61L52 21.77V34.18H46.47V12.73H52.16L60.84 24.53V12.73H66.4L66.36 34.18Z" fill="white"/>
</g>
<defs>
<clipPath id="clip0_246_220">
<rect width="79" height="47" fill="white"/>
</clipPath>
</defs>
</svg>
