<svg id="Layer_1" data-name="Layer 1" xmlns="http://www.w3.org/2000/svg" viewBox="0 0 565.84 375.02"><defs><style>.cls-1{fill:#036;}.cls-2{fill:#dd8627;}.cls-3{fill:#fff;}</style></defs><path class="cls-1" d="M197.05,161v43.2H383.74V161Zm1.31,1.32h91.37a10,10,0,0,1,9.24,7.29v23.64a10.29,10.29,0,0,0,6.71,9.64H198.36Z"/><path class="cls-2" d="M222.82,193.18H210.28V171.73h12.15a6.29,6.29,0,0,1,4.63,1.62,5.23,5.23,0,0,1,1.64,3.85,5.07,5.07,0,0,1-1,3.24,4.57,4.57,0,0,1-2.62,1.68,4.45,4.45,0,0,1,2.91,1.75,5.51,5.51,0,0,1,1.17,3.49,5.68,5.68,0,0,1-1.64,4.14A6.22,6.22,0,0,1,222.82,193.18ZM221.18,180a1.9,1.9,0,0,0,1.37-.5,1.7,1.7,0,0,0,.53-1.3,1.68,1.68,0,0,0-.53-1.27,1.94,1.94,0,0,0-1.37-.5h-5.37V180Zm.19,8.55a2.14,2.14,0,0,0,1.56-.53,1.82,1.82,0,0,0,.57-1.4,1.85,1.85,0,0,0-.57-1.38,2.14,2.14,0,0,0-1.56-.54h-5.56v3.85Z"/><path class="cls-2" d="M247.45,193.18H242.5v-1.87a6.82,6.82,0,0,1-5.37,2.25,5.15,5.15,0,0,1-3.85-1.3,4.9,4.9,0,0,1-1.27-3.55V177.65h5v9a2.24,2.24,0,0,0,2.57,2.51,3.63,3.63,0,0,0,3-1.51v-10h4.95Z"/><path class="cls-2" d="M257,193.56a13,13,0,0,1-4.07-.64,8.78,8.78,0,0,1-3.2-1.74l2.06-3.41a8.2,8.2,0,0,0,2.52,1.44,8.39,8.39,0,0,0,2.94.62c1.4,0,2.09-.39,2.09-1.19,0-.36-.31-.64-.93-.82a18.79,18.79,0,0,0-2.25-.48,18.49,18.49,0,0,1-2.65-.63,4.75,4.75,0,0,1-2.27-1.51,4.21,4.21,0,0,1-.93-2.83,4.57,4.57,0,0,1,1.77-3.63,7.35,7.35,0,0,1,4.88-1.48,10.78,10.78,0,0,1,6.5,2.06l-1.9,3.28a6.13,6.13,0,0,0-2-1.21,7,7,0,0,0-2.57-.5,2.74,2.74,0,0,0-1.42.33.92.92,0,0,0-.54.8q0,.48.93.72c.62.16,1.37.32,2.25.49a18.82,18.82,0,0,1,2.65.69,4.91,4.91,0,0,1,2.27,1.59,4.74,4.74,0,0,1-1,6.62A8.42,8.42,0,0,1,257,193.56Z"/><path class="cls-2" d="M271.09,175.43a2.84,2.84,0,0,1-4,0,2.78,2.78,0,0,1-.82-2,2.83,2.83,0,1,1,5.66,0A2.78,2.78,0,0,1,271.09,175.43Zm.47,17.75h-4.95V177.65h4.95Z"/><path class="cls-2" d="M289.28,193.18h-4.95v-1.55a5.21,5.21,0,0,1-2.05,1.4,7.36,7.36,0,0,1-2.78.53,5.73,5.73,0,0,1-3.68-1.33,4.59,4.59,0,0,1-1.66-3.78,4.44,4.44,0,0,1,1.61-3.78,6.07,6.07,0,0,1,3.73-1.2q3.38,0,4.83,1.8V183.4a1.94,1.94,0,0,0-.84-1.64,3.92,3.92,0,0,0-2.32-.61,6.62,6.62,0,0,0-4.4,1.64L275,179.67a10.46,10.46,0,0,1,7-2.41,11,11,0,0,1,2.72.31,7.46,7.46,0,0,1,2.28,1,4.53,4.53,0,0,1,1.64,1.93,6.84,6.84,0,0,1,.6,3Zm-7.72-2.87a3.13,3.13,0,0,0,2.77-1.12v-1.38a3.22,3.22,0,0,0-2.77-1.1,3.15,3.15,0,0,0-1.77.47,1.61,1.61,0,0,0,0,2.67A3.15,3.15,0,0,0,281.56,190.31Z"/><path class="cls-3" d="M320.76,193.56a11.65,11.65,0,0,1-8.3-3.1,11.33,11.33,0,0,1,0-16,11.68,11.68,0,0,1,8.31-3.08,9.75,9.75,0,0,1,9.35,5.75l-4.76,2.25a5.08,5.08,0,0,0-1.81-2.22,4.73,4.73,0,0,0-2.78-.9,5.67,5.67,0,0,0-4.3,1.79,6.65,6.65,0,0,0,0,8.84,5.67,5.67,0,0,0,4.3,1.78,4.66,4.66,0,0,0,2.78-.9,5,5,0,0,0,1.81-2.21l4.76,2.25a11.16,11.16,0,0,1-3.52,4.1A9.73,9.73,0,0,1,320.76,193.56Z"/><path class="cls-3" d="M348.21,193.18H332.49V171.73h15.72v4.82H338v3.35h10v4.82H338v3.63h10.19Z"/><path class="cls-3" d="M371.36,193.18H366L357,180.77v12.41h-5.53V171.73h5.69l8.68,11.8v-11.8h5.56Z"/></svg>