<svg id="Layer_1" data-name="Layer 1" xmlns="http://www.w3.org/2000/svg" viewBox="0 0 565.84 375.02"><defs><style>.cls-1{fill:#036;}.cls-2{fill:#dd8627;}.cls-3{fill:#fff;}</style></defs><path class="cls-1" d="M177.94,156.58v52H402.85v-52Zm1.59,1.59H289.59c5.49.39,10,4,11.13,8.78v28.48A12.39,12.39,0,0,0,308.81,207H179.53Z"/><path class="cls-2" d="M209,195.34h-15.1V169.51h14.64a7.57,7.57,0,0,1,5.57,2,6.31,6.31,0,0,1,2,4.63,6.09,6.09,0,0,1-1.26,3.91,5.49,5.49,0,0,1-3.16,2,5.31,5.31,0,0,1,3.51,2.11,6.61,6.61,0,0,1,1.41,4.2,6.89,6.89,0,0,1-2,5A7.53,7.53,0,0,1,209,195.34Zm-2-15.92a2.29,2.29,0,0,0,1.64-.6,2,2,0,0,0,.64-1.57,2,2,0,0,0-.64-1.53,2.29,2.29,0,0,0-1.64-.6h-6.47v4.3Zm.23,10.3a2.67,2.67,0,0,0,1.88-.63,2.42,2.42,0,0,0,0-3.36,2.63,2.63,0,0,0-1.88-.65h-6.7v4.64Z"/><path class="cls-2" d="M238.66,195.34h-6v-2.25a8.18,8.18,0,0,1-6.46,2.71,6.21,6.21,0,0,1-4.63-1.56,5.89,5.89,0,0,1-1.53-4.28V176.63h6v10.89q0,3,3.1,3a4.37,4.37,0,0,0,3.56-1.82V176.63h6Z"/><path class="cls-2" d="M250.16,195.8a15.64,15.64,0,0,1-4.9-.77,10.61,10.61,0,0,1-3.85-2.09l2.48-4.11a9.85,9.85,0,0,0,3,1.73,10,10,0,0,0,3.54.75c1.68,0,2.52-.48,2.52-1.43,0-.44-.38-.77-1.12-1a22.59,22.59,0,0,0-2.72-.58,22.33,22.33,0,0,1-3.19-.76,5.77,5.77,0,0,1-2.73-1.82,5,5,0,0,1-1.12-3.4,5.48,5.48,0,0,1,2.13-4.38,8.86,8.86,0,0,1,5.88-1.78,12.93,12.93,0,0,1,7.83,2.48l-2.29,3.95a7.27,7.27,0,0,0-2.4-1.46,8.54,8.54,0,0,0-3.1-.6,3.29,3.29,0,0,0-1.7.39,1.12,1.12,0,0,0-.66,1c0,.39.37.68,1.12.87s1.65.39,2.71.58a23.94,23.94,0,0,1,3.2.83,6.05,6.05,0,0,1,2.73,1.92,5.73,5.73,0,0,1-1.16,8A10.14,10.14,0,0,1,250.16,195.8Z"/><path class="cls-2" d="M267.15,174a3.42,3.42,0,0,1-4.85,0,3.39,3.39,0,0,1-1-2.44,3.41,3.41,0,1,1,6.81,0A3.39,3.39,0,0,1,267.15,174Zm.56,21.38h-6V176.63h6Z"/><path class="cls-2" d="M289.05,195.34h-6v-1.86a6.22,6.22,0,0,1-2.46,1.69,8.87,8.87,0,0,1-3.35.63,6.9,6.9,0,0,1-4.43-1.6,5.51,5.51,0,0,1-2-4.55,5.3,5.3,0,0,1,1.94-4.55,7.28,7.28,0,0,1,4.49-1.46c2.71,0,4.65.73,5.81,2.17v-2.25a2.32,2.32,0,0,0-1-2,4.69,4.69,0,0,0-2.79-.74,8,8,0,0,0-5.31,2l-2.13-3.76a12.65,12.65,0,0,1,8.48-2.9,13.5,13.5,0,0,1,3.28.37,8.74,8.74,0,0,1,2.75,1.18,5.51,5.51,0,0,1,2,2.32,8.32,8.32,0,0,1,.72,3.6Zm-9.3-3.45a3.76,3.76,0,0,0,3.33-1.35v-1.67a3.85,3.85,0,0,0-3.33-1.32,3.76,3.76,0,0,0-2.13.57,1.94,1.94,0,0,0,0,3.21A3.76,3.76,0,0,0,279.75,191.89Z"/><path class="cls-3" d="M327,195.8a14,14,0,0,1-10-3.73,13.65,13.65,0,0,1,0-19.27,14.06,14.06,0,0,1,10-3.72A11.75,11.75,0,0,1,338.24,176l-5.73,2.71a6.16,6.16,0,0,0-2.19-2.67A5.69,5.69,0,0,0,327,175a6.78,6.78,0,0,0-5.17,2.15,8,8,0,0,0,0,10.65,6.81,6.81,0,0,0,5.17,2.15,5.63,5.63,0,0,0,3.35-1.09,6.11,6.11,0,0,0,2.19-2.67l5.73,2.71a13.4,13.4,0,0,1-4.24,4.94A11.73,11.73,0,0,1,327,195.8Z"/><path class="cls-3" d="M360.05,195.34H341.11V169.51h18.94v5.8H347.77v4h12v5.81h-12v4.38h12.28Z"/><path class="cls-3" d="M387.93,195.34H381.5l-10.92-15v15h-6.66V169.51h6.85l10.46,14.21V169.51h6.7Z"/></svg>